HIERARCHY
ROOT root
{
	OFFSET	0	13.1	24.9
	CHANNELS 6  Xposition Yposition Zposition Xrotation Yrotation Zrotation
	JOINT spine_1
	{
		OFFSET	0	9.99999	0
		CHANNELS 3  Xrotation Yrotation Zrotation
		JOINT spine_2
		{
			OFFSET	0	112	-10
			CHANNELS 3  Xrotation Yrotation Zrotation
			JOINT spine_3
			{
				OFFSET	0	206.5	19.3
				CHANNELS 3  Xrotation Yrotation Zrotation
				JOINT spine_4
				{
					OFFSET	0	110.4	14.6
					CHANNELS 3  Xrotation Yrotation Zrotation
					JOINT neck_1
					{
						OFFSET	0	71.8	-50.3
						CHANNELS 3  Xrotation Yrotation Zrotation
						JOINT neck_2
						{
							OFFSET	0	86.2	-25.8
							CHANNELS 3  Xrotation Yrotation Zrotation
							JOINT head_ee
							{
								OFFSET	0	179.8	-8.7
								CHANNELS 3  Xrotation Yrotation Zrotation
								End Site
								{
									OFFSET	1	0	0
								}
							}
						}
					}
					JOINT left_clavicle
					{
						OFFSET	-43.2	22.4	-70.8
						CHANNELS 3  Xrotation Yrotation Zrotation
						JOINT left_shoulder
						{
							OFFSET	-93.9	-5.79999	48.7
							CHANNELS 3  Xrotation Yrotation Zrotation
							JOINT left_elbow
							{
								OFFSET	-291.4	-30.8	15.2
								CHANNELS 3  Xrotation Yrotation Zrotation
								JOINT left_lowarm_twist
								{
									OFFSET	-110.7	-3.89999	13.6
									CHANNELS 3  Xrotation Yrotation Zrotation
									JOINT left_hand
									{
										OFFSET	-110.7	-3.89999	13.6
										CHANNELS 3  Xrotation Yrotation Zrotation
										JOINT left_ee
										{
											OFFSET	-80.8	-5.10001	12.1
											CHANNELS 3  Xrotation Yrotation Zrotation
											End Site
											{
												OFFSET	1	0	0
											}
										}
									}
								}
							}
						}
					}
					JOINT right_clavicle
					{
						OFFSET	43.2	22.4	-70.8
						CHANNELS 3  Xrotation Yrotation Zrotation
						JOINT right_shoulder
						{
							OFFSET	93.9	-5.79999	48.7
							CHANNELS 3  Xrotation Yrotation Zrotation
							JOINT right_elbow
							{
								OFFSET	291.4	-30.8	15.2
								CHANNELS 3  Xrotation Yrotation Zrotation
								JOINT right_lowarm_twist
								{
									OFFSET	110.7	-3.89999	13.6
									CHANNELS 3  Xrotation Yrotation Zrotation
									JOINT right_hand
									{
										OFFSET	110.7	-3.89999	13.6
										CHANNELS 3  Xrotation Yrotation Zrotation
										JOINT right_ee
										{
											OFFSET	80.8	-5.10001	12.1
											CHANNELS 3  Xrotation Yrotation Zrotation
											End Site
											{
												OFFSET	1	0	0
											}
										}
									}
								}
							}
						}
					}
				}
			}
		}
	}
	JOINT left_hip
	{
		OFFSET	-82.8	-127.5	0.300001
		CHANNELS 3  Xrotation Yrotation Zrotation
		JOINT left_knee
		{
			OFFSET	-28.2	-396.7	2.2
			CHANNELS 3  Xrotation Yrotation Zrotation
			JOINT left_ankle
			{
				OFFSET	-11.7	-411.3	35.4
				CHANNELS 3  Xrotation Yrotation Zrotation
				JOINT left_toes
				{
					OFFSET	0	-60	-88.6
					CHANNELS 3  Xrotation Yrotation Zrotation
					JOINT left_foot_ee
					{
						OFFSET	-22.5	-16.5	-42.2
						CHANNELS 3  Xrotation Yrotation Zrotation
						End Site
						{
							OFFSET	1	0	0
						}
					}
				}
			}
		}
	}
	JOINT right_hip
	{
		OFFSET	82.8	-127.5	0.300001
		CHANNELS 3  Xrotation Yrotation Zrotation
		JOINT right_knee
		{
			OFFSET	28.2	-396.7	2.2
			CHANNELS 3  Xrotation Yrotation Zrotation
			JOINT right_ankle
			{
				OFFSET	11.7	-411.3	35.4
				CHANNELS 3  Xrotation Yrotation Zrotation
				JOINT right_toes
				{
					OFFSET	0	-60	-88.6
					CHANNELS 3  Xrotation Yrotation Zrotation
					JOINT right_foot_ee
					{
						OFFSET	22.5	-16.5	-42.2
						CHANNELS 3  Xrotation Yrotation Zrotation
						End Site
						{
							OFFSET	1	0	0
						}
					}
				}
			}
		}
	}
}
MOTION
Frames: 6
Frame Time: 0.02
3544.00554061 753.057 -1468.07387048 6.35436384538 69.5077772367 -15.2685000994 -0.858355 1.20379 4.83177 -0.845816 0.894275 4.89835 -0.758384 -0.220481 4.97425 -0.792448 0.566894 4.94682 -11.1539 12.6091 -2.65539 -11.4408 25.5797 0.919891 -0.0 0.0 -0.0 -2.46291 24.8946 -0.396449 -25.3543 -12.3377 56.0703 1.96495 -44.2222 0.798391 -61.7455 -5.50059 5.1522 0.327179 -2.44671 1.16267 -0.0 0.0 -0.0 13.7707 25.5328 -27.523 -7.60156 30.412 -60.6853 0.871314 23.3459 -0.180015 37.0394 0.204295 4.64576 0.884241 0.860229 -5.5637 0.0 0.0 0.0 3.85092 2.6058 3.54679 -19.6145 0.300026 2.98037 13.4809 14.919 -1.9073 14.5433 -0.0 -0.0 -0.0 0.0 -0.0 -11.5839 4.64951 8.44795 -1.1453 -0.0454612 -0.169879 30.7195 4.22811 4.02886 -5.78424 0.0 0.0 0.0 0.0 0.0 
3543.75978486 753.057 -1469.31755069 5.7353696319 67.1875760606 -14.6026513715 -0.858355 1.20379 4.83177 -0.845816 0.894275 4.89835 -0.758384 -0.220481 4.97425 -0.792448 0.566894 4.94682 -11.1539 12.6091 -2.65539 -11.4408 25.5797 0.919891 -0.0 0.0 -0.0 -2.46291 24.8946 -0.396449 -25.3543 -12.3377 56.0703 1.96495 -44.2222 0.798391 -61.7455 -5.50059 5.1522 0.327179 -2.44671 1.16267 -0.0 0.0 -0.0 13.7707 25.5328 -27.523 -7.60156 30.412 -60.6853 0.871314 23.3459 -0.180015 37.0394 0.204295 4.64576 0.884241 0.860229 -5.5637 0.0 0.0 0.0 3.85092 2.6058 3.54679 -19.6145 0.300026 2.98037 13.4809 14.919 -1.9073 14.5433 -0.0 -0.0 -0.0 0.0 -0.0 -11.5839 4.64951 8.44795 -1.1453 -0.0454612 -0.169879 30.7195 4.22811 4.02886 -5.78424 0.0 0.0 0.0 0.0 0.0 
3536.50149706 747.387 -1463.60298178 5.81033152073 67.7877390573 -15.0788759152 -0.803829 1.18363 4.71722 -0.791885 0.881415 4.78277 -0.708013 -0.202959 4.85889 -0.740498 0.566045 4.83014 -10.7289 12.8623 -2.11212 -10.9938 25.6834 1.41443 -0.0 0.0 -0.0 -2.1129 24.0161 -0.0822474 -26.7382 -12.5396 57.2335 1.89481 -43.1824 0.749928 -62.1706 -5.55387 5.16361 0.269208 -0.84994 1.44305 -0.0 0.0 -0.0 13.6323 25.8169 -27.1662 -6.55113 30.5656 -59.9757 0.898179 23.9855 -0.190799 37.5055 0.225914 4.7013 1.03843 5.98914 -4.46982 0.0 0.0 0.0 4.58681 1.59307 4.26181 -21.0012 0.282394 3.19242 15.0927 13.9898 -2.11822 14.681 -0.0 -0.0 -0.0 0.0 -0.0 -12.725 2.70232 8.84678 0.368419 0.0153459 0.0544538 29.8895 4.76875 3.94726 -6.18915 0.0 0.0 0.0 0.0 0.0 
3524.81264517 749.829 -1464.05918246 6.24023391604 69.4632272724 -15.3139142275 -0.864606 1.17504 4.42745 -0.854145 0.891218 4.49307 -0.774839 -0.134268 4.57846 -0.803596 0.589739 4.54238 -9.94023 12.8987 -1.75399 -10.1439 25.4674 1.58109 -0.0 0.0 -0.0 -2.04803 23.2364 -0.12673 -28.803 -12.5397 57.9277 1.72867 -40.571 0.639 -62.6712 -5.6167 5.17654 0.236159 0.507244 1.78882 -0.0 0.0 -0.0 13.6937 26.282 -27.2526 -5.09577 31.0242 -59.6511 0.936958 24.8976 -0.206845 37.8476 0.242068 4.74195 1.20999 10.3329 -3.77799 0.0 0.0 0.0 6.37364 0.996763 4.27775 -22.0899 0.264959 3.35855 14.7658 13.4786 -2.07295 14.2638 -0.0 -0.0 -0.0 0.0 -0.0 -13.7408 1.44535 8.37658 1.40928 0.0605929 0.207763 27.7986 7.34096 3.75465 -6.4829 0.0 0.0 0.0 0.0 0.0 
3515.6267618 752.637 -1464.33332544 6.89863821057 70.8076678559 -15.6155652611 -0.915195 1.26984 4.42257 -0.904856 0.986138 4.49421 -0.817737 -0.0451432 4.60069 -0.846617 0.681252 4.5503 -9.48478 13.0594 -1.32328 -9.65862 25.4478 1.93469 -0.0 0.0 -0.0 -1.83765 22.9167 0.110742 -29.9395 -12.6233 58.7157 1.62174 -38.774 0.570724 -63.0301 -5.66181 5.18547 0.194655 1.71108 2.01337 -0.0 0.0 -0.0 13.6975 26.6426 -27.2164 -4.06328 31.3984 -59.4502 0.964991 25.5487 -0.218791 38.0869 0.253513 4.77033 1.34865 13.5901 -3.29602 0.0 0.0 0.0 9.83503 0.434229 2.95824 -22.9605 0.248745 3.49117 13.6867 13.2825 -1.92869 13.7589 -0.0 -0.0 -0.0 0.0 -0.0 -15.5377 0.306788 8.43618 2.477 0.1099 0.364166 25.9804 9.10401 3.57558 -6.77654 0.0 0.0 0.0 0.0 0.0 
3508.5184042 746.937 -1462.62539464 5.91202737252 72.1284402926 -14.7767592959 -0.928598 1.24571 4.50045 -0.917842 0.957121 4.5704 -0.831442 -0.0917209 4.66844 -0.861263 0.64592 4.62454 -9.66164 13.0346 -1.07784 -9.84821 25.2494 2.20892 -0.0 0.0 -0.0 -1.72618 22.7764 0.242777 -30.8772 -12.6722 59.2466 1.47986 -36.2421 0.484318 -63.4054 -5.70905 5.19451 0.164346 2.54693 2.15918 -0.0 0.0 -0.0 13.6476 26.695 -27.0936 -2.06788 31.9644 -59.2842 1.06775 27.8751 -0.264991 38.3026 0.263931 4.79586 1.46563 16.1948 -2.92898 0.0 0.0 0.0 10.7468 -0.650215 1.63363 -24.1736 0.222794 3.67552 12.8801 12.9469 -1.81945 13.4325 -0.0 -0.0 -0.0 0.0 -0.0 -15.4153 -0.203647 8.04523 3.67125 0.168498 0.538003 24.1895 10.2438 3.38299 -7.25823 0.0 0.0 0.0 0.0 0.0 
